<svg id="svg" version="1.1" xmlns="http://www.w3.org/2000/svg" xmlns:xlink="http://www.w3.org/1999/xlink" width="400" height="91.78662150719728" viewBox="0, 0, 400,91.78662150719728"><g id="svgg"><path id="path0" d="M340.568 0.338 C 338.465 0.903,336.048 2.199,335.877 2.851 C 335.832 3.025,335.737 3.167,335.667 3.167 C 335.471 3.167,335.121 4.124,335.244 4.323 C 335.304 4.420,335.284 4.500,335.201 4.500 C 335.117 4.500,335.035 4.988,335.019 5.583 C 335.002 6.179,335.048 6.667,335.119 6.668 C 335.191 6.668,335.262 6.978,335.276 7.357 C 335.291 7.735,335.388 8.098,335.493 8.162 C 335.597 8.227,335.703 8.460,335.728 8.681 C 335.809 9.383,336.030 10.000,336.203 10.000 C 336.294 10.000,336.328 10.108,336.277 10.239 C 336.227 10.371,336.260 10.503,336.352 10.534 C 336.443 10.564,336.536 10.709,336.557 10.855 C 336.602 11.159,336.875 11.711,338.818 15.413 C 339.589 16.882,340.302 18.138,340.402 18.206 C 340.502 18.273,340.521 18.329,340.445 18.331 C 340.369 18.332,340.454 18.577,340.635 18.875 C 340.912 19.331,342.959 23.224,343.812 24.917 C 343.950 25.192,344.162 25.516,344.282 25.637 C 344.402 25.758,344.500 25.970,344.500 26.107 C 344.500 26.345,345.284 27.823,345.504 28.000 C 345.646 28.114,345.892 28.721,345.860 28.875 C 345.845 28.944,345.908 29.000,346.000 29.000 C 346.092 29.000,346.167 29.113,346.167 29.250 C 346.167 29.387,346.246 29.500,346.343 29.500 C 346.440 29.500,346.479 29.565,346.430 29.645 C 346.381 29.725,346.489 29.961,346.670 30.171 C 346.980 30.527,347.067 30.744,347.020 31.042 C 347.009 31.110,347.064 31.167,347.143 31.167 C 347.222 31.167,347.759 32.085,348.337 33.208 C 348.915 34.331,349.470 35.305,349.569 35.372 C 349.669 35.440,349.692 35.496,349.622 35.497 C 349.492 35.500,350.286 37.182,350.489 37.333 C 350.551 37.379,350.875 37.998,351.209 38.708 C 351.543 39.419,351.883 40.000,351.964 40.000 C 352.045 40.000,352.111 40.100,352.111 40.223 C 352.111 40.346,352.742 41.640,353.514 43.098 C 354.285 44.557,355.250 46.402,355.657 47.198 C 356.065 47.995,356.470 48.602,356.558 48.547 C 356.646 48.493,356.664 48.536,356.599 48.642 C 356.533 48.749,356.634 49.053,356.823 49.319 C 357.012 49.584,357.167 49.857,357.167 49.924 C 357.167 49.992,357.467 50.522,357.833 51.103 C 358.200 51.683,358.500 52.191,358.500 52.232 C 358.500 52.272,359.029 53.296,359.676 54.506 L 360.852 56.707 360.386 57.979 C 360.130 58.678,359.914 59.288,359.907 59.333 C 359.899 59.379,359.795 59.642,359.676 59.917 C 359.274 60.843,359.179 61.076,358.231 63.500 C 357.712 64.829,357.222 65.942,357.143 65.972 C 357.064 66.003,357.000 66.129,357.000 66.253 C 357.000 66.377,356.913 66.689,356.806 66.947 C 356.699 67.206,356.604 67.454,356.595 67.500 C 356.586 67.546,356.519 67.677,356.446 67.792 C 356.373 67.906,356.360 68.075,356.417 68.167 C 356.473 68.258,356.432 68.333,356.325 68.333 C 356.218 68.333,356.174 68.446,356.227 68.583 C 356.280 68.721,356.260 68.833,356.183 68.833 C 356.037 68.833,354.804 71.883,354.758 72.361 C 354.743 72.514,354.650 72.739,354.552 72.861 C 354.333 73.135,354.086 73.863,354.142 74.068 C 354.165 74.151,354.119 74.264,354.039 74.318 C 353.912 74.404,353.032 76.455,352.924 76.917 C 352.902 77.008,352.791 77.308,352.676 77.583 C 352.561 77.858,352.453 78.158,352.437 78.250 C 352.421 78.342,352.361 78.492,352.305 78.583 C 352.249 78.675,351.904 79.688,351.539 80.833 C 349.712 86.574,350.394 90.042,353.497 90.779 C 353.728 90.834,353.992 90.935,354.083 91.003 C 354.509 91.321,356.790 91.667,358.450 91.665 C 364.263 91.662,369.185 88.257,371.216 82.833 C 371.302 82.604,371.441 82.282,371.525 82.118 C 371.609 81.954,371.633 81.748,371.579 81.660 C 371.525 81.572,371.560 81.500,371.657 81.500 C 371.754 81.500,371.833 81.419,371.833 81.320 C 371.833 81.221,372.667 78.990,373.686 76.362 C 374.706 73.734,375.553 71.508,375.569 71.417 C 375.586 71.325,375.681 71.100,375.781 70.917 C 375.881 70.733,376.087 70.208,376.239 69.750 C 376.665 68.467,378.892 62.761,379.004 62.667 C 379.207 62.495,380.157 59.953,380.071 59.813 C 380.021 59.732,380.050 59.667,380.135 59.667 C 380.272 59.667,381.144 57.513,381.226 56.968 C 381.244 56.848,381.305 56.675,381.360 56.583 C 381.415 56.492,381.513 56.173,381.577 55.875 C 381.641 55.577,381.748 55.333,381.816 55.333 C 381.934 55.333,382.708 53.313,382.691 53.047 C 382.687 52.976,382.779 52.767,382.896 52.583 C 383.013 52.400,383.390 51.500,383.734 50.583 C 384.077 49.667,384.424 48.767,384.505 48.583 C 384.909 47.664,385.140 47.000,385.054 47.000 C 385.002 47.000,385.050 46.891,385.161 46.757 C 385.271 46.624,385.318 46.443,385.263 46.355 C 385.209 46.267,385.226 46.170,385.302 46.139 C 385.412 46.094,387.923 39.854,388.074 39.250 C 388.097 39.158,388.193 38.896,388.289 38.667 C 389.096 36.728,389.627 35.333,389.558 35.333 C 389.513 35.333,389.594 35.215,389.738 35.071 C 389.972 34.837,390.077 34.486,390.020 34.125 C 390.009 34.056,390.069 34.000,390.153 34.000 C 390.238 34.000,390.356 33.774,390.417 33.498 C 390.478 33.222,390.629 32.791,390.753 32.540 C 391.198 31.642,392.333 28.597,392.333 28.301 C 392.333 28.135,392.392 28.000,392.463 28.000 C 392.565 28.000,393.713 25.179,393.752 24.833 C 393.758 24.787,393.843 24.600,393.942 24.417 C 394.042 24.233,394.217 23.783,394.332 23.417 C 394.533 22.774,395.979 18.945,396.409 17.917 C 396.524 17.642,396.787 16.967,396.995 16.417 C 397.202 15.867,397.471 15.188,397.594 14.909 C 397.893 14.226,398.832 11.674,398.802 11.624 C 398.789 11.601,398.939 11.096,399.135 10.500 C 400.477 6.424,400.333 3.246,398.743 1.850 C 395.662 -0.855,387.435 -0.520,384.240 2.441 C 384.007 2.657,383.768 2.833,383.708 2.833 C 383.452 2.833,381.201 5.342,380.926 5.933 C 380.760 6.291,380.534 6.696,380.423 6.833 C 380.312 6.971,379.973 7.721,379.669 8.500 C 379.366 9.279,379.021 10.143,378.903 10.419 C 378.643 11.027,378.289 11.885,378.250 12.000 C 378.234 12.046,378.166 12.209,378.098 12.362 C 378.030 12.515,377.958 12.751,377.938 12.887 C 377.918 13.022,377.823 13.234,377.727 13.358 C 377.476 13.682,376.977 14.998,376.883 15.583 C 376.839 15.858,376.745 16.105,376.673 16.132 C 376.505 16.194,375.288 19.421,375.380 19.559 C 375.400 19.590,375.326 19.725,375.215 19.858 C 375.104 19.992,374.719 20.922,374.358 21.926 C 373.674 23.828,372.909 25.846,372.654 26.417 C 372.439 26.897,370.638 31.552,370.589 31.750 C 370.567 31.842,370.422 32.203,370.267 32.553 L 369.986 33.190 369.564 32.396 C 369.331 31.959,369.016 31.498,368.862 31.372 C 368.709 31.245,368.676 31.189,368.790 31.246 C 368.925 31.315,368.962 31.262,368.897 31.093 C 368.843 30.951,368.720 30.884,368.623 30.943 C 368.516 31.010,368.499 30.970,368.579 30.840 C 368.651 30.724,368.638 30.582,368.551 30.523 C 368.408 30.427,367.873 29.492,366.582 27.083 C 366.337 26.625,365.307 24.637,364.294 22.667 C 363.282 20.696,362.300 18.915,362.114 18.708 C 361.928 18.502,361.827 18.333,361.890 18.333 C 362.020 18.333,361.025 16.296,360.833 16.167 C 360.764 16.121,360.540 15.690,360.334 15.208 C 360.128 14.727,359.881 14.333,359.785 14.333 C 359.689 14.333,359.660 14.284,359.720 14.225 C 359.779 14.165,359.698 14.010,359.539 13.879 C 359.380 13.749,359.352 13.694,359.476 13.758 C 359.724 13.886,359.219 13.008,358.921 12.794 C 358.810 12.715,358.809 12.670,358.917 12.667 C 359.008 12.664,358.988 12.601,358.871 12.527 C 358.754 12.453,358.628 12.234,358.591 12.040 C 358.493 11.533,358.183 11.000,357.984 11.000 C 357.890 11.000,357.853 10.936,357.901 10.859 C 357.949 10.781,357.846 10.564,357.671 10.376 C 357.496 10.189,357.399 9.990,357.454 9.934 C 357.510 9.879,357.456 9.833,357.333 9.833 C 357.211 9.833,357.161 9.784,357.221 9.723 C 357.282 9.662,357.079 9.156,356.771 8.598 C 356.463 8.040,356.005 7.211,355.755 6.755 C 352.840 1.457,346.450 -1.243,340.568 0.338 M31.167 0.580 C 28.720 0.824,25.909 1.344,23.924 1.919 C 21.822 2.528,18.333 3.843,18.333 4.027 C 18.333 4.114,18.264 4.144,18.180 4.092 C 18.096 4.040,17.925 4.091,17.801 4.207 C 17.677 4.322,17.465 4.441,17.331 4.472 C 17.196 4.502,17.031 4.614,16.962 4.722 C 16.894 4.829,16.837 4.865,16.836 4.801 C 16.833 4.692,16.389 4.932,14.958 5.814 C 14.615 6.026,14.333 6.280,14.333 6.378 C 14.333 6.475,14.286 6.509,14.229 6.451 C 14.099 6.321,12.667 7.290,12.667 7.508 C 12.667 7.595,12.570 7.667,12.451 7.667 C 12.332 7.667,11.789 8.079,11.243 8.583 C 10.697 9.087,10.194 9.500,10.125 9.500 C 10.056 9.500,10.000 9.617,10.000 9.760 C 10.000 9.903,9.940 9.983,9.868 9.938 C 9.750 9.865,8.105 11.567,8.167 11.697 C 8.181 11.726,7.895 12.072,7.532 12.465 C 6.718 13.347,5.430 15.165,5.614 15.172 C 5.689 15.175,5.636 15.269,5.498 15.380 C 5.076 15.719,4.646 16.498,4.769 16.697 C 4.833 16.802,4.811 16.839,4.717 16.781 C 4.333 16.544,2.150 21.760,1.277 25.000 C -1.488 35.267,0.146 48.384,5.156 56.131 C 5.529 56.707,5.833 57.234,5.833 57.302 C 5.833 57.370,6.054 57.667,6.324 57.963 C 6.594 58.258,6.774 58.500,6.725 58.500 C 6.347 58.500,9.739 62.005,11.514 63.449 C 14.071 65.529,18.810 68.249,20.460 68.584 C 20.759 68.644,20.960 68.763,20.908 68.847 C 20.826 68.980,21.232 69.073,21.391 68.958 C 21.423 68.935,21.554 69.000,21.683 69.103 C 21.953 69.318,23.389 69.791,24.000 69.866 C 24.229 69.894,24.459 69.974,24.511 70.043 C 24.563 70.113,24.911 70.188,25.285 70.210 C 25.660 70.232,25.938 70.296,25.903 70.353 C 25.833 70.468,28.092 70.937,29.500 71.100 C 30.004 71.158,30.458 71.229,30.508 71.258 C 31.368 71.755,43.822 71.654,44.449 71.145 C 44.689 70.950,44.710 70.951,44.588 71.153 C 44.477 71.338,44.516 71.362,44.764 71.264 C 44.940 71.195,45.458 71.103,45.917 71.060 C 46.375 71.016,46.775 70.909,46.806 70.823 C 46.837 70.736,46.927 70.705,47.007 70.754 C 47.324 70.950,51.947 69.635,52.190 69.280 C 52.248 69.194,52.364 69.166,52.446 69.217 C 52.529 69.268,53.306 68.938,54.173 68.484 C 55.040 68.030,55.956 67.578,56.208 67.480 C 56.460 67.381,56.667 67.233,56.667 67.150 C 56.667 67.068,56.746 67.000,56.842 67.000 C 57.435 67.000,60.528 64.355,61.667 62.875 C 62.296 62.057,63.345 60.154,63.251 60.002 C 63.206 59.929,63.285 59.823,63.428 59.769 C 63.571 59.714,63.644 59.599,63.591 59.513 C 63.538 59.427,63.576 59.306,63.675 59.245 C 63.775 59.183,63.811 59.015,63.756 58.871 C 63.701 58.728,63.751 58.551,63.869 58.478 C 64.475 58.103,63.962 52.833,63.319 52.833 C 63.224 52.833,63.193 52.758,63.250 52.667 C 63.307 52.575,63.279 52.500,63.188 52.500 C 63.097 52.500,62.975 52.349,62.916 52.165 C 62.773 51.715,60.941 49.833,60.645 49.833 C 60.516 49.833,60.037 50.143,59.580 50.522 C 57.019 52.645,51.696 55.333,50.052 55.333 C 49.921 55.333,49.859 55.407,49.915 55.498 C 49.971 55.589,49.914 55.623,49.787 55.575 C 49.661 55.526,49.338 55.573,49.070 55.680 C 48.803 55.786,48.287 55.903,47.925 55.939 C 47.563 55.976,47.225 56.060,47.175 56.128 C 47.125 56.195,46.709 56.274,46.252 56.304 C 45.795 56.334,45.327 56.436,45.212 56.531 C 45.098 56.626,44.898 56.663,44.768 56.613 C 44.639 56.564,44.482 56.574,44.419 56.636 C 44.224 56.832,39.592 56.902,37.583 56.740 C 37.125 56.703,36.603 56.668,36.424 56.662 C 36.245 56.656,36.020 56.588,35.924 56.510 C 35.828 56.433,35.412 56.327,35.000 56.274 C 33.578 56.093,33.118 56.000,32.934 55.857 C 32.833 55.777,32.525 55.659,32.250 55.593 C 31.975 55.528,31.188 55.238,30.500 54.949 C 29.813 54.661,29.194 54.442,29.125 54.463 C 29.056 54.483,29.000 54.436,29.000 54.359 C 29.000 54.281,28.681 54.075,28.292 53.901 C 27.902 53.727,27.471 53.495,27.333 53.386 C 26.229 52.512,25.458 52.000,25.249 52.000 C 25.112 52.000,25.000 51.923,25.000 51.829 C 25.000 51.735,24.569 51.183,24.042 50.603 C 22.789 49.223,22.031 48.333,22.109 48.333 C 22.208 48.333,21.264 46.923,21.124 46.861 C 21.055 46.830,21.040 46.736,21.092 46.652 C 21.144 46.569,21.113 46.500,21.023 46.500 C 20.933 46.500,20.769 46.219,20.658 45.875 C 20.547 45.531,20.401 45.175,20.332 45.083 C 20.106 44.781,19.346 41.944,19.058 40.333 C 18.593 37.722,18.681 33.460,19.263 30.435 C 19.530 29.043,20.776 25.667,21.022 25.667 C 21.112 25.667,21.140 25.592,21.083 25.500 C 21.027 25.408,21.064 25.333,21.167 25.333 C 21.269 25.333,21.307 25.258,21.250 25.167 C 21.193 25.075,21.214 25.000,21.297 25.000 C 21.458 25.000,21.911 24.166,21.862 23.958 C 21.846 23.890,21.898 23.833,21.978 23.833 C 22.057 23.833,22.321 23.533,22.564 23.167 C 22.806 22.800,22.975 22.500,22.938 22.500 C 22.812 22.500,25.252 20.173,25.833 19.739 C 32.010 15.132,41.537 15.340,48.992 20.244 C 49.763 20.752,50.447 21.167,50.512 21.167 C 50.578 21.167,50.674 21.279,50.727 21.417 C 50.780 21.554,50.899 21.667,50.993 21.667 C 51.152 21.667,51.585 21.979,52.090 22.458 C 52.211 22.573,52.349 22.667,52.396 22.667 C 52.444 22.667,52.806 22.881,53.200 23.142 C 54.054 23.709,54.871 24.006,55.332 23.917 C 55.516 23.882,55.667 23.933,55.667 24.032 C 55.667 24.283,58.880 24.109,58.965 23.854 C 59.000 23.750,59.088 23.702,59.162 23.747 C 59.369 23.875,60.344 23.486,60.240 23.317 C 60.189 23.234,60.333 23.167,60.560 23.167 C 60.787 23.167,60.997 23.110,61.028 23.042 C 61.058 22.973,61.496 22.607,62.000 22.229 C 63.176 21.346,63.484 21.056,64.054 20.289 C 64.678 19.450,65.386 17.878,65.273 17.582 C 65.222 17.451,65.251 17.301,65.336 17.248 C 65.892 16.905,65.117 12.879,64.333 12.038 C 64.150 11.841,64.000 11.604,64.000 11.510 C 64.000 11.124,60.277 7.333,59.898 7.333 C 59.771 7.333,59.667 7.266,59.667 7.184 C 59.667 7.101,59.010 6.608,58.208 6.086 C 51.483 1.716,41.059 -0.406,31.167 0.580 M109.333 0.510 C 104.223 0.973,99.010 2.350,95.513 4.158 C 95.002 4.423,94.302 4.767,93.958 4.922 C 93.615 5.077,93.333 5.276,93.333 5.362 C 93.333 5.449,93.258 5.473,93.165 5.416 C 93.073 5.359,92.953 5.429,92.898 5.572 C 92.843 5.715,92.731 5.790,92.649 5.739 C 92.567 5.688,92.500 5.731,92.500 5.833 C 92.500 5.936,92.440 5.983,92.367 5.937 C 92.245 5.862,91.469 6.398,89.742 7.750 C 88.660 8.596,86.125 11.180,84.999 12.583 C 84.410 13.317,83.851 13.972,83.756 14.039 C 83.646 14.117,83.644 14.164,83.750 14.169 C 83.842 14.174,83.801 14.269,83.660 14.380 C 83.302 14.663,82.282 16.213,82.540 16.082 C 82.655 16.023,82.604 16.093,82.426 16.238 C 82.249 16.382,82.158 16.500,82.225 16.500 C 82.292 16.500,82.193 16.664,82.006 16.865 C 81.693 17.202,81.642 17.317,81.681 17.606 C 81.689 17.665,81.617 17.761,81.521 17.820 C 81.337 17.934,80.121 20.500,80.252 20.500 C 80.294 20.500,80.182 20.781,80.004 21.125 C 79.826 21.469,79.566 22.162,79.426 22.667 C 79.286 23.171,78.981 24.258,78.749 25.083 C 76.892 31.663,77.000 40.848,79.017 48.042 C 79.217 48.752,79.457 49.333,79.551 49.333 C 79.645 49.333,79.678 49.377,79.625 49.431 C 79.528 49.528,79.982 50.995,80.296 51.598 C 80.387 51.773,80.633 52.310,80.843 52.792 C 81.052 53.273,81.298 53.667,81.390 53.667 C 81.481 53.667,81.509 53.713,81.452 53.770 C 81.151 54.071,83.764 58.072,85.685 60.250 C 85.928 60.525,86.415 61.078,86.768 61.479 C 88.039 62.923,92.893 66.667,93.495 66.667 C 93.593 66.667,93.959 66.847,94.308 67.067 C 94.657 67.287,95.574 67.753,96.346 68.103 C 97.118 68.452,97.787 68.787,97.833 68.848 C 97.984 69.047,100.357 69.838,100.514 69.742 C 100.598 69.690,100.667 69.734,100.667 69.841 C 100.667 69.948,100.779 69.992,100.917 69.940 C 101.054 69.887,101.167 69.910,101.167 69.991 C 101.167 70.071,101.485 70.196,101.875 70.267 C 102.698 70.418,102.554 70.384,103.483 70.650 C 103.886 70.765,104.355 70.823,104.525 70.779 C 104.694 70.734,104.833 70.753,104.833 70.821 C 104.833 70.889,104.927 70.950,105.042 70.957 C 105.156 70.964,106.037 71.101,107.000 71.260 C 109.752 71.717,120.306 71.665,120.666 71.193 C 120.712 71.133,120.938 71.087,121.167 71.092 C 121.396 71.096,122.071 71.002,122.667 70.882 C 123.263 70.762,123.975 70.623,124.250 70.574 C 124.525 70.525,124.862 70.439,125.000 70.384 C 125.138 70.328,125.400 70.256,125.583 70.223 C 125.767 70.190,126.029 70.115,126.167 70.056 C 126.304 69.997,126.600 69.918,126.825 69.881 C 127.049 69.844,127.424 69.711,127.658 69.587 C 127.892 69.462,128.440 69.269,128.875 69.158 C 129.310 69.047,129.667 68.891,129.667 68.812 C 129.667 68.732,129.736 68.667,129.822 68.667 C 130.680 68.667,136.619 65.183,138.510 63.570 C 140.288 62.053,143.500 58.483,143.500 58.023 C 143.500 57.934,143.556 57.836,143.625 57.806 C 143.858 57.702,145.467 54.927,146.315 53.167 C 146.779 52.204,147.225 51.337,147.306 51.241 C 147.459 51.058,147.901 49.875,147.926 49.583 C 147.934 49.492,148.055 49.154,148.194 48.833 C 148.334 48.512,148.509 47.950,148.584 47.583 C 148.659 47.217,148.747 46.804,148.779 46.667 C 148.811 46.529,148.848 46.213,148.860 45.964 C 148.873 45.715,148.947 45.551,149.025 45.599 C 149.103 45.647,149.179 45.476,149.195 45.218 C 149.249 44.337,149.263 44.249,149.377 44.065 C 149.440 43.963,149.530 43.488,149.578 43.009 C 149.625 42.530,149.693 42.089,149.729 42.028 C 150.010 41.542,150.191 34.668,149.981 32.417 C 149.913 31.683,149.810 30.558,149.751 29.917 C 149.693 29.275,149.575 28.725,149.490 28.695 C 149.404 28.664,149.379 28.458,149.435 28.236 C 149.499 27.982,149.464 27.833,149.342 27.833 C 149.235 27.833,149.191 27.763,149.244 27.677 C 149.373 27.468,148.871 25.043,148.574 24.438 C 148.444 24.175,148.379 23.894,148.429 23.813 C 148.479 23.733,148.459 23.667,148.385 23.667 C 148.311 23.666,148.240 23.495,148.228 23.286 C 148.138 21.709,144.707 15.337,142.430 12.517 C 141.809 11.747,141.214 11.001,141.108 10.860 C 140.795 10.439,138.427 8.170,138.299 8.168 C 138.235 8.167,137.998 7.998,137.773 7.792 C 137.113 7.186,136.858 7.000,136.682 7.000 C 136.591 7.000,136.315 6.813,136.068 6.583 C 135.820 6.354,135.551 6.167,135.469 6.167 C 135.387 6.167,135.173 6.030,134.994 5.864 C 134.738 5.625,132.018 4.194,130.125 3.301 C 125.582 1.160,116.142 -0.107,109.333 0.510 M165.250 0.569 C 160.831 1.600,159.448 3.678,160.415 7.833 C 160.661 8.887,161.038 10.575,161.253 11.583 C 161.985 15.014,162.342 16.583,162.448 16.833 C 162.506 16.971,162.541 17.140,162.526 17.210 C 162.511 17.279,162.683 18.104,162.908 19.043 C 163.272 20.559,163.927 23.531,164.258 25.167 C 164.323 25.488,164.454 25.938,164.549 26.167 C 164.644 26.396,164.736 26.771,164.754 27.000 C 164.800 27.582,165.183 29.382,165.303 29.582 C 165.358 29.672,165.424 30.010,165.450 30.331 C 165.477 30.653,165.574 30.941,165.667 30.972 C 165.760 31.003,165.797 31.091,165.749 31.168 C 165.652 31.325,166.172 33.870,166.328 34.000 C 166.383 34.046,166.429 34.196,166.430 34.333 C 166.437 34.963,166.702 36.167,166.834 36.167 C 166.915 36.167,166.950 36.327,166.912 36.524 C 166.874 36.720,166.894 36.964,166.957 37.065 C 167.020 37.167,167.076 37.362,167.082 37.500 C 167.111 38.160,167.387 39.333,167.514 39.333 C 167.592 39.333,167.617 39.435,167.570 39.559 C 167.522 39.682,167.633 40.226,167.816 40.767 C 167.998 41.308,168.189 41.975,168.240 42.250 C 168.442 43.355,171.505 56.767,171.609 57.000 C 171.670 57.137,171.704 57.317,171.685 57.399 C 171.648 57.558,172.120 59.708,172.767 62.333 C 173.445 65.080,175.817 68.667,176.957 68.667 C 177.103 68.667,177.172 68.717,177.110 68.779 C 176.962 68.927,177.833 69.497,178.208 69.499 C 178.369 69.500,178.500 69.579,178.500 69.677 C 178.500 69.774,178.575 69.807,178.667 69.750 C 178.758 69.693,178.833 69.719,178.833 69.807 C 178.833 71.003,188.053 71.465,189.412 70.337 C 189.506 70.259,189.641 70.194,189.711 70.193 C 190.155 70.188,190.821 69.948,190.743 69.822 C 190.691 69.739,190.778 69.720,190.935 69.780 C 191.128 69.854,191.182 69.827,191.102 69.697 C 191.024 69.571,191.072 69.538,191.241 69.603 C 191.384 69.658,191.500 69.615,191.500 69.508 C 191.500 69.401,191.567 69.355,191.648 69.405 C 191.729 69.455,191.888 69.385,192.002 69.248 C 192.115 69.112,192.311 69.000,192.437 69.000 C 192.563 69.000,192.667 68.887,192.667 68.750 C 192.667 68.612,192.782 68.500,192.922 68.500 C 193.062 68.500,193.220 68.387,193.273 68.250 C 193.326 68.112,193.461 68.000,193.574 68.000 C 193.825 68.000,194.746 67.020,195.560 65.888 C 196.736 64.251,196.725 64.289,199.167 53.865 C 199.625 51.911,200.087 50.149,200.195 49.948 C 200.302 49.747,200.379 49.546,200.366 49.500 C 200.353 49.454,200.421 49.128,200.516 48.774 C 200.611 48.421,200.649 48.027,200.600 47.899 C 200.551 47.771,200.575 47.667,200.654 47.667 C 200.732 47.667,200.834 47.423,200.880 47.125 C 200.926 46.827,201.122 45.958,201.316 45.194 C 201.510 44.430,201.630 43.742,201.583 43.666 C 201.536 43.591,201.570 43.503,201.658 43.473 C 201.745 43.442,201.844 43.151,201.877 42.827 C 201.910 42.503,201.993 42.147,202.061 42.036 C 202.130 41.924,202.143 41.764,202.090 41.678 C 202.038 41.593,202.071 41.476,202.164 41.418 C 202.410 41.266,202.372 40.958,202.125 41.102 C 202.010 41.169,202.051 41.071,202.214 40.884 C 202.378 40.697,202.538 40.290,202.570 39.980 C 202.602 39.670,202.671 39.304,202.724 39.167 C 202.986 38.481,203.343 36.764,203.265 36.563 C 203.217 36.437,203.240 36.333,203.316 36.333 C 203.392 36.333,203.551 35.865,203.668 35.292 C 203.994 33.705,204.072 33.709,204.416 35.332 C 204.591 36.158,204.788 36.833,204.852 36.833 C 204.917 36.833,204.951 36.964,204.928 37.124 C 204.904 37.284,204.986 37.791,205.110 38.249 C 205.233 38.708,205.375 39.308,205.425 39.583 C 205.475 39.858,205.628 40.496,205.766 41.000 C 205.904 41.504,206.055 42.142,206.102 42.417 C 206.148 42.692,206.329 43.479,206.503 44.167 C 206.677 44.854,206.906 45.867,207.012 46.417 C 207.117 46.967,207.247 47.488,207.300 47.576 C 207.353 47.664,207.415 47.912,207.438 48.127 C 207.460 48.342,207.682 49.320,207.930 50.301 C 208.178 51.281,208.382 52.177,208.385 52.292 C 208.387 52.406,208.449 52.500,208.523 52.500 C 208.596 52.500,208.620 52.594,208.577 52.708 C 208.533 52.823,208.653 53.442,208.844 54.083 C 209.034 54.725,209.186 55.415,209.181 55.617 C 209.176 55.818,209.242 56.027,209.329 56.080 C 209.415 56.134,209.438 56.300,209.381 56.449 C 209.310 56.635,209.340 56.682,209.478 56.597 C 209.625 56.506,209.651 56.589,209.572 56.903 C 209.506 57.166,209.534 57.333,209.643 57.333 C 209.742 57.333,209.781 57.442,209.730 57.575 C 209.679 57.708,209.696 57.913,209.769 58.031 C 209.842 58.148,209.914 58.358,209.929 58.497 C 209.945 58.636,210.005 58.956,210.062 59.208 C 210.120 59.460,210.208 59.866,210.258 60.109 C 210.308 60.352,210.429 60.700,210.526 60.882 C 210.623 61.064,210.736 61.446,210.777 61.731 C 211.066 63.756,212.308 65.984,214.024 67.553 C 215.844 69.218,216.845 69.933,217.058 69.720 C 217.118 69.660,217.167 69.707,217.167 69.823 C 217.167 69.940,217.274 69.994,217.406 69.944 C 217.537 69.893,217.670 69.927,217.701 70.018 C 217.731 70.110,217.867 70.202,218.003 70.222 C 218.139 70.243,218.328 70.308,218.422 70.367 C 219.197 70.852,223.263 71.202,225.333 70.962 C 227.317 70.732,229.495 70.028,229.499 69.615 C 229.499 69.541,229.569 69.523,229.652 69.575 C 229.736 69.626,230.150 69.406,230.571 69.084 C 230.992 68.763,231.392 68.500,231.461 68.500 C 231.821 68.500,234.258 65.616,234.106 65.370 C 234.057 65.291,234.160 65.104,234.335 64.954 C 234.665 64.672,235.317 62.772,235.380 61.911 C 235.400 61.639,235.467 61.378,235.530 61.331 C 235.592 61.284,235.683 60.946,235.733 60.581 C 235.835 59.828,235.891 59.558,236.045 59.083 C 236.105 58.900,236.187 58.563,236.229 58.333 C 236.270 58.104,236.577 56.717,236.910 55.250 C 237.244 53.783,237.549 52.396,237.589 52.167 C 237.629 51.938,237.771 51.300,237.905 50.750 C 238.040 50.200,238.184 49.563,238.226 49.333 C 238.268 49.104,238.422 48.429,238.567 47.833 C 238.713 47.237,239.169 45.212,239.580 43.333 C 239.992 41.454,240.619 38.642,240.975 37.083 C 241.330 35.525,241.717 33.762,241.835 33.167 C 241.953 32.571,242.120 31.993,242.206 31.882 C 242.292 31.772,242.314 31.603,242.255 31.507 C 242.195 31.412,242.213 31.333,242.293 31.333 C 242.421 31.333,242.886 29.521,242.934 28.833 C 242.944 28.696,242.998 28.471,243.054 28.333 C 243.110 28.196,243.185 27.896,243.219 27.667 C 243.254 27.438,243.340 27.116,243.412 26.951 C 243.483 26.787,243.495 26.606,243.439 26.550 C 243.382 26.493,243.402 26.365,243.483 26.265 C 243.686 26.015,244.090 24.109,244.210 22.833 C 244.232 22.604,244.304 22.376,244.369 22.327 C 244.434 22.278,244.527 21.978,244.575 21.661 C 244.690 20.898,244.984 19.540,245.170 18.917 C 245.514 17.762,245.999 15.299,245.910 15.155 C 245.857 15.070,245.883 15.000,245.968 15.000 C 246.099 15.000,246.367 13.972,246.600 12.583 C 246.631 12.400,246.962 10.904,247.335 9.260 C 248.113 5.838,248.173 3.500,247.484 3.500 C 247.401 3.500,247.352 3.442,247.375 3.372 C 247.439 3.175,246.143 1.833,245.890 1.833 C 245.767 1.833,245.667 1.777,245.667 1.707 C 245.667 1.043,241.950 0.269,239.417 0.405 C 236.737 0.549,233.500 1.519,233.500 2.179 C 233.500 2.275,233.435 2.313,233.356 2.264 C 233.277 2.215,232.921 2.455,232.565 2.796 C 231.712 3.612,230.965 4.499,231.124 4.505 C 231.193 4.508,231.131 4.602,230.986 4.714 C 230.631 4.986,229.850 6.973,229.776 7.792 C 229.744 8.154,229.670 8.526,229.613 8.618 C 229.557 8.710,229.541 8.946,229.579 9.143 C 229.617 9.339,229.588 9.500,229.516 9.500 C 229.443 9.500,229.287 10.156,229.168 10.958 C 229.050 11.760,228.919 12.642,228.877 12.917 C 228.835 13.192,228.789 13.623,228.775 13.875 C 228.761 14.127,228.702 14.333,228.644 14.333 C 228.586 14.333,228.487 14.765,228.425 15.292 C 228.362 15.819,228.247 16.512,228.168 16.833 C 228.090 17.154,227.986 17.725,227.938 18.101 C 227.889 18.477,227.697 19.565,227.510 20.517 C 227.323 21.470,227.132 22.650,227.086 23.139 C 227.040 23.628,226.970 24.081,226.930 24.146 C 226.857 24.264,226.108 28.396,225.174 33.833 C 224.898 35.438,224.447 38.025,224.170 39.583 C 223.894 41.142,223.469 43.579,223.226 45.000 C 222.983 46.421,222.714 47.658,222.628 47.750 C 222.527 47.858,222.489 47.829,222.519 47.667 C 222.566 47.417,222.072 44.974,221.878 44.500 C 221.822 44.362,221.755 44.075,221.730 43.861 C 221.705 43.647,221.597 43.367,221.490 43.238 C 221.383 43.110,221.339 42.893,221.391 42.757 C 221.443 42.622,221.417 42.468,221.333 42.417 C 221.250 42.365,221.221 42.220,221.269 42.095 C 221.317 41.970,221.279 41.820,221.185 41.762 C 221.091 41.703,221.060 41.538,221.115 41.395 C 221.170 41.251,221.143 41.084,221.056 41.025 C 220.908 40.925,220.623 39.796,218.816 32.167 C 217.753 27.677,216.508 22.488,216.239 21.417 C 216.100 20.867,215.946 20.192,215.898 19.917 C 215.771 19.206,214.842 15.466,214.718 15.167 C 214.661 15.029,214.625 14.863,214.638 14.797 C 214.704 14.480,213.709 10.845,213.587 10.956 C 213.510 11.026,213.503 10.986,213.571 10.867 C 213.711 10.625,213.381 9.032,213.124 8.708 C 213.034 8.594,213.015 8.500,213.083 8.500 C 213.152 8.500,213.114 8.387,213.000 8.250 C 212.886 8.113,212.848 8.000,212.917 8.000 C 212.985 8.000,212.947 7.888,212.833 7.750 C 212.719 7.613,212.682 7.500,212.750 7.500 C 212.818 7.500,212.791 7.399,212.689 7.276 C 212.586 7.153,212.543 7.013,212.592 6.964 C 212.718 6.838,211.806 4.667,211.627 4.667 C 211.546 4.667,211.527 4.592,211.583 4.500 C 211.640 4.408,211.594 4.333,211.482 4.333 C 211.370 4.333,211.327 4.284,211.388 4.223 C 211.717 3.895,209.579 1.822,208.239 1.171 C 204.949 -0.430,199.386 0.413,197.544 2.791 C 196.822 3.724,196.324 4.601,196.447 4.724 C 196.507 4.784,196.464 4.833,196.351 4.833 C 196.239 4.833,196.193 4.908,196.250 5.000 C 196.307 5.092,196.275 5.167,196.180 5.167 C 196.084 5.167,195.957 5.373,195.896 5.625 C 195.836 5.877,195.688 6.279,195.567 6.519 C 195.447 6.759,195.314 7.134,195.273 7.353 C 195.231 7.571,195.122 7.944,195.030 8.180 C 194.938 8.417,194.748 9.092,194.607 9.680 C 193.601 13.877,193.135 15.844,193.101 16.032 C 193.025 16.457,191.440 22.976,190.394 27.167 C 189.810 29.504,189.300 31.604,189.260 31.833 C 189.139 32.531,189.079 32.741,188.944 32.958 C 188.872 33.073,188.857 33.236,188.910 33.322 C 188.962 33.407,188.924 33.527,188.825 33.589 C 188.725 33.650,188.683 33.803,188.731 33.928 C 188.779 34.053,188.745 34.202,188.655 34.257 C 188.565 34.313,188.508 34.447,188.529 34.554 C 188.550 34.662,188.472 35.030,188.355 35.372 C 188.239 35.714,188.190 36.070,188.248 36.163 C 188.306 36.257,188.282 36.333,188.195 36.333 C 188.057 36.333,187.779 37.474,187.748 38.167 C 187.742 38.304,187.679 38.511,187.608 38.626 C 187.537 38.741,187.007 40.840,186.430 43.291 C 185.803 45.952,185.340 47.613,185.280 47.415 C 185.198 47.142,184.351 42.279,184.062 40.417 C 184.019 40.142,183.941 39.804,183.889 39.667 C 183.836 39.529,183.773 39.229,183.748 39.000 C 183.644 38.037,182.025 28.677,181.905 28.343 C 181.858 28.210,181.780 27.760,181.732 27.343 C 181.684 26.925,181.569 26.246,181.477 25.833 C 181.385 25.421,181.268 24.746,181.218 24.333 C 181.167 23.921,181.064 23.560,180.989 23.531 C 180.914 23.502,180.893 23.371,180.944 23.239 C 180.994 23.108,180.982 22.869,180.916 22.708 C 180.808 22.447,180.711 21.776,180.663 20.958 C 180.654 20.798,180.594 20.666,180.531 20.666 C 180.468 20.666,180.407 20.385,180.395 20.041 C 180.376 19.483,180.234 18.583,180.165 18.583 C 180.150 18.583,180.106 18.246,180.067 17.833 C 180.028 17.421,179.948 16.971,179.888 16.833 C 179.829 16.696,179.796 16.517,179.814 16.436 C 179.833 16.356,179.769 15.906,179.672 15.436 C 179.575 14.967,179.465 14.433,179.428 14.250 C 179.391 14.067,179.285 13.583,179.191 13.176 C 179.097 12.768,179.058 12.374,179.104 12.301 C 179.149 12.227,179.117 12.167,179.031 12.167 C 178.946 12.167,178.825 11.773,178.763 11.292 C 178.454 8.898,177.551 5.295,177.186 5.000 C 177.130 4.954,176.937 4.629,176.758 4.277 C 175.316 1.446,169.510 -0.425,165.250 0.569 M290.333 0.445 C 286.395 0.838,281.403 1.955,280.646 2.612 C 280.497 2.741,280.309 2.832,280.229 2.814 C 280.149 2.795,279.933 2.837,279.750 2.907 C 278.192 3.498,277.055 4.040,275.609 4.883 C 274.678 5.425,273.654 6.020,273.333 6.204 C 272.764 6.531,270.752 8.047,270.413 8.404 C 270.320 8.503,269.757 9.029,269.163 9.573 C 268.569 10.118,267.858 10.845,267.583 11.189 C 267.308 11.533,266.628 12.362,266.071 13.032 C 265.513 13.702,264.520 15.075,263.863 16.083 C 263.206 17.092,262.547 18.067,262.399 18.250 C 262.160 18.544,261.666 19.543,260.888 21.298 C 260.754 21.599,260.634 21.993,260.620 22.173 C 260.607 22.353,260.549 22.500,260.491 22.500 C 260.365 22.500,259.919 23.828,259.945 24.125 C 259.955 24.240,259.907 24.333,259.840 24.333 C 259.732 24.333,259.211 26.007,259.110 26.678 C 259.090 26.809,259.027 26.992,258.971 27.083 C 258.914 27.175,258.750 27.887,258.607 28.667 C 258.464 29.446,258.304 30.308,258.252 30.583 C 257.565 34.226,257.690 41.583,258.504 45.417 C 258.602 45.875,258.688 46.362,258.697 46.500 C 258.705 46.637,258.783 46.840,258.870 46.951 C 258.957 47.062,258.987 47.220,258.936 47.302 C 258.852 47.438,259.341 49.396,259.610 50.000 C 259.742 50.296,259.734 50.271,259.898 50.958 C 259.969 51.256,260.100 51.500,260.190 51.500 C 260.280 51.500,260.312 51.567,260.261 51.649 C 260.153 51.824,260.631 53.037,260.866 53.185 C 260.955 53.241,261.022 53.335,261.014 53.394 C 260.964 53.771,261.039 53.994,261.330 54.329 C 261.511 54.539,261.619 54.775,261.570 54.855 C 261.521 54.935,261.560 55.000,261.657 55.000 C 261.754 55.000,261.815 55.056,261.792 55.125 C 261.769 55.194,261.935 55.550,262.160 55.917 C 262.385 56.283,262.682 56.808,262.819 57.083 C 262.957 57.358,263.114 57.621,263.168 57.667 C 263.222 57.712,263.470 58.103,263.719 58.534 C 264.763 60.342,268.988 65.000,269.583 65.000 C 269.701 65.000,269.836 65.101,269.884 65.225 C 269.996 65.518,272.390 67.098,274.083 67.997 C 274.817 68.387,275.659 68.852,275.955 69.031 C 276.252 69.210,276.582 69.302,276.689 69.236 C 276.812 69.160,276.840 69.187,276.766 69.308 C 276.691 69.429,276.771 69.500,276.980 69.500 C 277.164 69.500,277.358 69.572,277.412 69.659 C 277.466 69.747,277.621 69.777,277.755 69.725 C 277.890 69.673,278.000 69.714,278.000 69.816 C 278.000 69.917,278.056 69.991,278.125 69.980 C 278.194 69.969,278.306 69.979,278.375 70.001 C 278.444 70.023,278.556 70.057,278.625 70.076 C 278.694 70.096,278.955 70.196,279.205 70.300 C 279.999 70.630,281.699 71.023,281.937 70.932 C 282.063 70.883,282.167 70.925,282.167 71.025 C 282.167 71.124,282.317 71.166,282.500 71.118 C 282.683 71.070,282.876 71.100,282.927 71.184 C 282.979 71.268,283.223 71.331,283.469 71.324 C 283.715 71.317,284.442 71.387,285.084 71.479 C 286.274 71.651,292.141 71.615,293.500 71.429 C 293.912 71.372,294.362 71.321,294.500 71.315 C 295.557 71.271,299.167 70.500,299.167 70.318 C 299.167 70.252,299.317 70.237,299.500 70.285 C 299.694 70.336,299.833 70.290,299.833 70.176 C 299.833 70.069,299.912 70.029,300.007 70.088 C 300.103 70.147,300.290 70.105,300.424 69.994 C 300.557 69.883,300.667 69.848,300.667 69.917 C 300.667 69.985,300.779 69.947,300.917 69.833 C 301.054 69.719,301.167 69.672,301.167 69.728 C 301.167 69.867,302.557 69.312,302.685 69.122 C 302.741 69.039,302.854 68.974,302.935 68.976 C 303.505 68.996,308.833 65.963,308.833 65.619 C 308.833 65.523,308.881 65.492,308.940 65.551 C 308.999 65.610,309.355 65.422,309.732 65.133 C 310.456 64.578,310.587 64.467,311.934 63.261 C 312.402 62.843,312.883 62.500,313.003 62.500 C 313.124 62.500,313.174 62.548,313.116 62.606 C 313.058 62.665,313.142 62.908,313.303 63.148 C 313.464 63.387,313.699 63.790,313.826 64.042 C 313.953 64.294,314.119 64.500,314.195 64.500 C 314.271 64.500,314.333 64.598,314.333 64.718 C 314.333 64.838,314.567 65.176,314.853 65.468 C 315.139 65.761,315.333 66.000,315.284 66.000 C 315.169 66.000,315.991 66.963,317.250 68.303 C 318.274 69.393,319.190 69.991,319.709 69.909 C 319.870 69.884,319.961 69.928,319.912 70.007 C 319.738 70.289,321.119 70.492,322.838 70.437 C 324.587 70.380,325.919 70.107,325.753 69.839 C 325.705 69.760,325.790 69.714,325.942 69.737 C 326.095 69.759,326.504 69.640,326.852 69.472 C 327.200 69.304,327.563 69.167,327.659 69.167 C 327.755 69.167,327.833 69.109,327.833 69.038 C 327.833 68.967,328.093 68.769,328.411 68.598 C 330.376 67.540,332.648 63.518,331.934 62.361 C 331.896 62.300,331.819 61.837,331.763 61.333 C 331.707 60.829,331.592 60.393,331.507 60.364 C 331.422 60.335,331.386 60.222,331.428 60.113 C 331.470 60.004,330.979 59.033,330.336 57.956 C 329.693 56.879,329.167 55.923,329.167 55.832 C 329.167 55.741,329.087 55.667,328.990 55.667 C 328.893 55.667,328.860 55.592,328.917 55.500 C 328.973 55.408,328.884 55.332,328.718 55.331 C 328.512 55.329,328.481 55.288,328.620 55.199 C 328.774 55.101,328.752 54.952,328.531 54.577 C 328.370 54.305,328.019 53.521,327.750 52.833 C 327.480 52.146,327.195 51.537,327.116 51.481 C 327.036 51.425,326.986 51.329,327.004 51.268 C 327.031 51.176,326.976 50.888,326.841 50.416 C 326.829 50.374,326.713 50.085,326.583 49.774 C 326.453 49.463,326.394 49.162,326.451 49.105 C 326.509 49.047,326.474 49.000,326.375 49.000 C 326.275 49.000,326.035 48.269,325.840 47.375 C 325.645 46.481,325.443 45.600,325.391 45.417 C 325.340 45.233,325.236 41.333,325.160 36.750 C 325.085 32.167,324.944 28.004,324.847 27.500 C 324.751 26.996,324.629 26.283,324.577 25.917 C 323.921 21.327,320.951 14.496,318.433 11.783 C 318.195 11.526,318.000 11.251,318.000 11.172 C 318.000 11.093,317.941 11.003,317.869 10.972 C 317.797 10.942,317.566 10.672,317.356 10.373 C 317.146 10.074,316.894 9.879,316.795 9.940 C 316.696 10.002,316.662 9.976,316.718 9.885 C 316.775 9.793,316.438 9.387,315.969 8.984 C 315.500 8.580,314.696 7.887,314.183 7.443 C 312.355 5.860,307.898 3.158,307.603 3.453 C 307.546 3.509,307.500 3.482,307.500 3.392 C 307.500 3.030,303.107 1.564,300.365 1.009 C 297.488 0.427,293.024 0.176,290.333 0.445 M118.583 17.075 C 128.443 19.957,133.505 30.989,130.287 42.583 C 130.083 43.317,129.927 44.010,129.940 44.125 C 129.953 44.240,129.896 44.333,129.815 44.333 C 129.733 44.333,129.667 44.453,129.667 44.600 C 129.667 44.853,128.372 47.659,128.175 47.833 C 128.123 47.879,127.868 48.244,127.609 48.643 C 127.131 49.381,124.736 51.833,124.493 51.833 C 124.421 51.833,124.336 51.890,124.306 51.958 C 124.126 52.363,120.560 54.306,119.500 54.577 C 119.454 54.588,119.023 54.696,118.541 54.816 C 118.060 54.935,117.628 55.094,117.583 55.168 C 117.537 55.242,117.351 55.263,117.169 55.216 C 116.987 55.168,116.706 55.184,116.544 55.250 C 115.877 55.526,111.940 55.449,110.417 55.131 C 109.592 54.959,108.748 54.803,108.542 54.784 C 108.336 54.765,108.167 54.700,108.167 54.638 C 108.167 54.527,107.282 54.265,106.868 54.253 C 106.750 54.250,106.589 54.144,106.512 54.019 C 106.434 53.893,106.287 53.842,106.185 53.905 C 106.083 53.968,106.000 53.936,106.000 53.833 C 106.000 53.731,105.925 53.693,105.833 53.750 C 105.742 53.807,105.667 53.761,105.667 53.649 C 105.667 53.536,105.621 53.490,105.566 53.546 C 105.510 53.601,105.379 53.576,105.274 53.489 C 105.169 53.403,104.596 53.015,104.000 52.628 C 102.551 51.686,100.696 49.810,99.692 48.272 C 99.241 47.582,98.822 47.067,98.761 47.128 C 98.699 47.190,98.699 47.111,98.759 46.953 C 98.820 46.796,98.798 46.667,98.712 46.667 C 98.626 46.667,98.549 46.573,98.542 46.458 C 98.534 46.344,98.344 45.800,98.119 45.250 C 97.502 43.739,97.455 43.610,97.387 43.250 C 97.352 43.067,97.250 42.892,97.161 42.861 C 97.071 42.830,97.043 42.733,97.097 42.644 C 97.152 42.556,97.142 42.356,97.076 42.200 C 97.010 42.044,96.930 41.767,96.898 41.583 C 96.820 41.132,96.697 40.583,96.673 40.583 C 96.342 40.583,96.385 33.096,96.726 31.428 C 96.874 30.701,96.960 30.071,96.916 30.027 C 96.872 29.983,96.920 29.847,97.022 29.724 C 97.124 29.601,97.152 29.500,97.083 29.500 C 97.015 29.500,97.052 29.388,97.166 29.251 C 97.280 29.114,97.333 28.851,97.285 28.667 C 97.237 28.483,97.260 28.371,97.335 28.418 C 97.411 28.465,97.522 28.279,97.582 28.006 C 97.642 27.733,97.829 27.226,97.997 26.881 C 98.165 26.535,98.268 26.195,98.225 26.126 C 98.182 26.057,98.212 26.000,98.291 26.000 C 98.371 26.000,98.575 25.681,98.745 25.292 C 98.915 24.902,99.103 24.546,99.163 24.500 C 99.223 24.454,99.548 23.967,99.885 23.417 C 100.222 22.867,100.799 22.079,101.166 21.667 C 101.533 21.254,101.833 20.860,101.833 20.792 C 101.833 20.723,101.908 20.667,101.999 20.667 C 102.090 20.667,102.634 20.289,103.207 19.827 C 104.900 18.463,107.714 17.257,110.387 16.750 C 111.124 16.610,111.744 16.478,111.766 16.456 C 112.002 16.218,117.294 16.698,118.583 17.075 M294.798 16.512 C 295.688 16.610,296.942 16.872,297.583 17.095 C 298.225 17.317,298.825 17.518,298.917 17.541 C 299.008 17.564,299.121 17.624,299.167 17.675 C 299.212 17.725,299.622 17.981,300.077 18.244 C 301.624 19.138,304.543 22.721,304.765 23.997 C 304.773 24.044,304.899 24.349,305.044 24.673 C 306.204 27.263,306.732 33.267,306.172 37.500 C 305.933 39.305,305.226 42.311,304.966 42.624 C 304.871 42.739,304.836 42.833,304.889 42.833 C 304.941 42.833,304.807 43.218,304.589 43.688 C 304.371 44.157,304.237 44.657,304.292 44.798 C 304.356 44.966,304.323 45.013,304.195 44.934 C 304.082 44.865,304.000 44.910,304.000 45.042 C 304.000 45.441,302.887 47.537,301.967 48.871 C 298.542 53.836,293.199 56.167,287.583 55.146 C 287.033 55.046,286.508 54.951,286.417 54.936 C 286.325 54.920,286.153 54.847,286.034 54.772 C 285.915 54.698,285.710 54.678,285.580 54.728 C 285.449 54.778,285.284 54.728,285.213 54.616 C 285.142 54.504,284.671 54.226,284.167 53.998 C 283.663 53.770,283.069 53.433,282.846 53.250 C 281.770 52.365,281.058 51.713,280.754 51.333 C 280.570 51.104,280.252 50.746,280.047 50.538 C 279.842 50.330,279.673 50.105,279.672 50.038 C 279.670 49.971,279.575 49.799,279.460 49.655 C 279.123 49.235,278.039 46.980,277.803 46.208 C 277.683 45.819,277.531 45.500,277.465 45.500 C 277.398 45.500,277.387 45.387,277.440 45.250 C 277.492 45.112,277.471 45.000,277.393 45.000 C 277.314 45.000,277.243 44.831,277.233 44.625 C 277.224 44.419,277.084 43.575,276.922 42.750 C 276.611 41.167,276.435 36.043,276.670 35.414 C 276.739 35.230,276.843 34.667,276.900 34.164 C 277.043 32.922,277.117 32.512,277.317 31.856 C 277.411 31.548,277.478 31.248,277.467 31.190 C 277.456 31.131,277.493 30.971,277.549 30.833 C 277.604 30.696,277.847 29.983,278.087 29.250 C 278.328 28.517,278.814 27.298,279.168 26.542 C 279.522 25.785,279.779 25.167,279.739 25.167 C 279.699 25.167,279.817 25.017,280.000 24.833 C 280.183 24.650,280.333 24.422,280.333 24.326 C 280.333 24.231,280.410 24.062,280.505 23.951 C 280.599 23.841,281.068 23.183,281.546 22.489 C 282.025 21.796,282.867 20.842,283.417 20.370 C 283.967 19.898,284.585 19.362,284.792 19.178 C 284.998 18.995,285.167 18.892,285.167 18.948 C 285.167 19.005,285.298 18.936,285.458 18.795 C 285.619 18.654,286.162 18.332,286.667 18.080 C 287.171 17.829,287.629 17.551,287.685 17.464 C 287.741 17.376,287.835 17.313,287.894 17.322 C 288.153 17.364,288.833 17.117,288.833 16.982 C 288.833 16.900,288.890 16.850,288.958 16.869 C 289.064 16.900,291.181 16.589,292.000 16.423 C 292.524 16.317,293.233 16.339,294.798 16.512 " stroke="none" fill="#04a4e4" fill-rule="evenodd"></path><path id="path1" d="M268.740 9.875 L 268.250 10.417 268.792 9.927 C 269.297 9.471,269.410 9.333,269.281 9.333 C 269.252 9.333,269.009 9.577,268.740 9.875 M150.039 34.333 C 150.039 34.654,150.073 34.785,150.115 34.625 C 150.157 34.465,150.157 34.202,150.115 34.042 C 150.073 33.881,150.039 34.012,150.039 34.333 M167.862 41.167 C 167.870 41.600,168.133 42.311,168.138 41.917 C 168.141 41.733,168.079 41.433,168.000 41.250 C 167.912 41.046,167.859 41.014,167.862 41.167 M43.250 56.674 C 42.610 56.796,42.619 56.800,43.453 56.768 C 43.931 56.749,44.374 56.681,44.439 56.617 C 44.577 56.479,44.172 56.499,43.250 56.674 M41.602 56.803 C 41.556 56.878,41.739 56.907,42.009 56.868 C 42.279 56.828,42.500 56.767,42.500 56.731 C 42.500 56.604,41.685 56.670,41.602 56.803 " stroke="none" fill="#04ace4" fill-rule="evenodd"></path><path id="path2" d="" stroke="none" fill="#08a4e4" fill-rule="evenodd"></path><path id="path3" d="" stroke="none" fill="#08a4e4" fill-rule="evenodd"></path><path id="path4" d="" stroke="none" fill="#08a4e4" fill-rule="evenodd"></path></g></svg>